<svg width="24" height="24" viewBox="0 0 24 24" fill="none" xmlns="http://www.w3.org/2000/svg">
<g id="bell 1">
<path id="Vector" d="M3.75 9.93738V20.9999C3.75 21.1988 3.82902 21.3896 3.96967 21.5302C4.11032 21.6709 4.30109 21.7499 4.5 21.7499H9V15.3749C9 15.0765 9.11853 14.7904 9.3295 14.5794C9.54048 14.3684 9.82663 14.2499 10.125 14.2499H13.875C14.1734 14.2499 14.4595 14.3684 14.6705 14.5794C14.8815 14.7904 15 15.0765 15 15.3749V21.7499H19.5C19.6989 21.7499 19.8897 21.6709 20.0303 21.5302C20.171 21.3896 20.25 21.1988 20.25 20.9999V9.93738" stroke="#0C4061" stroke-linecap="round" stroke-linejoin="round"/>
<path id="Vector_2" d="M22.5 11.9999L12.5105 2.43738C12.2761 2.18988 11.7281 2.18707 11.4895 2.43738L1.5 11.9999M18.75 8.39051V2.99988H16.5V6.23426" stroke="#0C4061" stroke-linecap="round" stroke-linejoin="round"/>
</g>
</svg>
