<svg width="24" height="24" viewBox="0 0 24 24" fill="none" xmlns="http://www.w3.org/2000/svg">
<g id="document">
<path id="Vector" d="M20 9.73466V19.5C20 20.8807 18.9494 22 17.6314 22H7.37132C6.05055 22 5 20.8807 5 19.5V4.5C5.00376 3.83815 5.26062 3.20452 5.71485 2.73652C6.16909 2.26851 6.78409 2.00388 7.42647 2H12.6169C12.7966 2.00028 12.9744 2.0374 13.14 2.1092C13.3056 2.18099 13.4556 2.28603 13.5814 2.41818L19.6007 8.725C19.8568 8.99482 20.0002 9.35727 20 9.73466Z" stroke="#6C6C6C" stroke-linejoin="round"/>
<path id="Vector_2" d="M12 2V8.35294C12.0052 8.78816 12.1804 9.20408 12.4882 9.51185C12.7959 9.81961 13.2118 9.99481 13.6471 10H20" stroke="#6C6C6C" stroke-linecap="round" stroke-linejoin="round"/>
<path id="Union" fill-rule="evenodd" clip-rule="evenodd" d="M17.25 16.25C17.5261 16.25 17.75 16.4739 17.75 16.75C17.75 17.0261 17.5261 17.25 17.25 17.25L9.45711 17.25L10.6036 18.3964C10.7988 18.5917 10.7988 18.9083 10.6036 19.1036C10.4083 19.2988 10.0917 19.2988 9.89645 19.1036L7.89645 17.1036C7.84851 17.0556 7.81234 17.0004 7.78794 16.9414C7.76385 16.8833 7.7504 16.8197 7.75001 16.753C7.75 16.752 7.75 16.751 7.75 16.75C7.75 16.749 7.75 16.748 7.75001 16.747C7.7508 16.6124 7.8048 16.4903 7.89205 16.4009C7.89497 16.3979 7.89793 16.3949 7.90093 16.392C7.94781 16.3463 8.00146 16.3116 8.05861 16.2879C8.11756 16.2635 8.18221 16.25 8.25 16.25L17.25 16.25Z" fill="#6C6C6C"/>
<path id="Union_2" fill-rule="evenodd" clip-rule="evenodd" d="M8.25 14.75C7.97386 14.75 7.75 14.5261 7.75 14.25C7.75 13.9739 7.97386 13.75 8.25 13.75L16.0429 13.75L14.8964 12.6036C14.7012 12.4083 14.7012 12.0917 14.8964 11.8964C15.0917 11.7012 15.4083 11.7012 15.6036 11.8964L17.6036 13.8964C17.6515 13.9444 17.6877 13.9996 17.7121 14.0586C17.7361 14.1167 17.7496 14.1803 17.75 14.247C17.75 14.248 17.75 14.249 17.75 14.25C17.75 14.251 17.75 14.252 17.75 14.253C17.7492 14.3876 17.6952 14.5097 17.6079 14.5991C17.605 14.6021 17.6021 14.6051 17.5991 14.608C17.5522 14.6537 17.4985 14.6884 17.4414 14.7121C17.3824 14.7365 17.3178 14.75 17.25 14.75L8.25 14.75Z" fill="#6C6C6C"/>
</g>
</svg>
