<svg width="33" height="33" viewBox="0 0 33 33" fill="none" xmlns="http://www.w3.org/2000/svg">
<path d="M28.8415 9.5306L23.2565 3.94435C23.0708 3.75858 22.8503 3.61122 22.6076 3.51068C22.3649 3.41015 22.1048 3.3584 21.8421 3.3584C21.5794 3.3584 21.3193 3.41015 21.0766 3.51068C20.834 3.61122 20.6135 3.75858 20.4277 3.94435L5.01399 19.3593C4.82747 19.5444 4.67959 19.7647 4.57894 20.0074C4.4783 20.2501 4.42691 20.5104 4.42774 20.7731V26.3593C4.42774 26.8898 4.63846 27.3985 5.01353 27.7736C5.3886 28.1486 5.89731 28.3593 6.42774 28.3593H12.014C12.2767 28.3602 12.537 28.3088 12.7797 28.2081C13.0224 28.1075 13.2427 27.9596 13.4277 27.7731L28.8415 12.3593C29.0273 12.1736 29.1746 11.9531 29.2752 11.7104C29.3757 11.4678 29.4274 11.2077 29.4274 10.945C29.4274 10.6823 29.3757 10.4222 29.2752 10.1795C29.1746 9.93682 29.0273 9.71632 28.8415 9.5306ZM6.84149 20.3593L17.4277 9.7731L19.514 11.8593L8.92774 22.4443L6.84149 20.3593ZM6.42774 22.7731L10.014 26.3593H6.42774V22.7731ZM12.4277 25.9456L10.3415 23.8593L20.9277 13.2731L23.014 15.3593L12.4277 25.9456ZM24.4277 13.9456L18.8415 8.35935L21.8415 5.35935L27.4277 10.9443L24.4277 13.9456Z" fill="black"/>
</svg>
