<svg width="24" height="24" viewBox="0 0 24 24" fill="none" xmlns="http://www.w3.org/2000/svg">
<g id="settings 1" clip-path="url(#clip0_39_652)">
<path id="Vector" d="M12 14.9999C13.6569 14.9999 15 13.6567 15 11.9999C15 10.343 13.6569 8.99988 12 8.99988C10.3431 8.99988 9 10.343 9 11.9999C9 13.6567 10.3431 14.9999 12 14.9999Z" stroke="#6C6C6C" stroke-linecap="round" stroke-linejoin="round"/>
<path id="Vector_2" d="M19.4 14.9999C19.2669 15.3015 19.2272 15.6361 19.286 15.9605C19.3448 16.2849 19.4995 16.5842 19.73 16.8199L19.79 16.8799C19.976 17.0656 20.1235 17.2862 20.2241 17.529C20.3248 17.7718 20.3766 18.032 20.3766 18.2949C20.3766 18.5577 20.3248 18.818 20.2241 19.0608C20.1235 19.3036 19.976 19.5241 19.79 19.7099C19.6043 19.8958 19.3837 20.0433 19.1409 20.144C18.8981 20.2446 18.6378 20.2965 18.375 20.2965C18.1122 20.2965 17.8519 20.2446 17.6091 20.144C17.3663 20.0433 17.1457 19.8958 16.96 19.7099L16.9 19.6499C16.6643 19.4193 16.365 19.2647 16.0406 19.2059C15.7162 19.1471 15.3816 19.1868 15.08 19.3199C14.7842 19.4466 14.532 19.6571 14.3543 19.9254C14.1766 20.1937 14.0813 20.5081 14.08 20.8299V20.9999C14.08 21.5303 13.8693 22.039 13.4942 22.4141C13.1191 22.7892 12.6104 22.9999 12.08 22.9999C11.5496 22.9999 11.0409 22.7892 10.6658 22.4141C10.2907 22.039 10.08 21.5303 10.08 20.9999V20.9099C10.0723 20.5789 9.96512 20.2579 9.77251 19.9886C9.5799 19.7193 9.31074 19.5142 9 19.3999C8.69838 19.2668 8.36381 19.2271 8.03941 19.2859C7.71502 19.3447 7.41568 19.4993 7.18 19.7299L7.12 19.7899C6.93425 19.9758 6.71368 20.1233 6.47088 20.224C6.22808 20.3246 5.96783 20.3765 5.705 20.3765C5.44217 20.3765 5.18192 20.3246 4.93912 20.224C4.69632 20.1233 4.47575 19.9758 4.29 19.7899C4.10405 19.6041 3.95653 19.3836 3.85588 19.1408C3.75523 18.898 3.70343 18.6377 3.70343 18.3749C3.70343 18.112 3.75523 17.8518 3.85588 17.609C3.95653 17.3662 4.10405 17.1456 4.29 16.9599L4.35 16.8999C4.58054 16.6642 4.73519 16.3649 4.794 16.0405C4.85282 15.7161 4.81312 15.3815 4.68 15.0799C4.55324 14.7841 4.34276 14.5319 4.07447 14.3542C3.80618 14.1765 3.49179 14.0812 3.17 14.0799H3C2.46957 14.0799 1.96086 13.8692 1.58579 13.4941C1.21071 13.119 1 12.6103 1 12.0799C1 11.5494 1.21071 11.0407 1.58579 10.6657C1.96086 10.2906 2.46957 10.0799 3 10.0799H3.09C3.42099 10.0721 3.742 9.965 4.0113 9.77239C4.28059 9.57978 4.48572 9.31061 4.6 8.99988C4.73312 8.69826 4.77282 8.36368 4.714 8.03929C4.65519 7.71489 4.50054 7.41556 4.27 7.17988L4.21 7.11988C4.02405 6.93413 3.87653 6.71355 3.77588 6.47076C3.67523 6.22796 3.62343 5.96771 3.62343 5.70488C3.62343 5.44205 3.67523 5.18179 3.77588 4.939C3.87653 4.6962 4.02405 4.47562 4.21 4.28988C4.39575 4.10392 4.61632 3.95641 4.85912 3.85576C5.10192 3.75511 5.36217 3.7033 5.625 3.7033C5.88783 3.7033 6.14808 3.75511 6.39088 3.85576C6.63368 3.95641 6.85425 4.10392 7.04 4.28988L7.1 4.34988C7.33568 4.58041 7.63502 4.73506 7.95941 4.79388C8.28381 4.8527 8.61838 4.81299 8.92 4.67988H9C9.29577 4.55311 9.54802 4.34263 9.72569 4.07434C9.90337 3.80605 9.99872 3.49166 10 3.16988V2.99988C10 2.46944 10.2107 1.96074 10.5858 1.58566C10.9609 1.21059 11.4696 0.999878 12 0.999878C12.5304 0.999878 13.0391 1.21059 13.4142 1.58566C13.7893 1.96074 14 2.46944 14 2.99988V3.08988C14.0013 3.41166 14.0966 3.72605 14.2743 3.99434C14.452 4.26263 14.7042 4.47311 15 4.59988C15.3016 4.73299 15.6362 4.7727 15.9606 4.71388C16.285 4.65506 16.5843 4.50041 16.82 4.26988L16.88 4.20988C17.0657 4.02393 17.2863 3.87641 17.5291 3.77576C17.7719 3.67511 18.0322 3.6233 18.295 3.6233C18.5578 3.6233 18.8181 3.67511 19.0609 3.77576C19.3037 3.87641 19.5243 4.02393 19.71 4.20988C19.896 4.39562 20.0435 4.6162 20.1441 4.859C20.2448 5.10179 20.2966 5.36205 20.2966 5.62488C20.2966 5.88771 20.2448 6.14796 20.1441 6.39076C20.0435 6.63355 19.896 6.85413 19.71 7.03988L19.65 7.09988C19.4195 7.33556 19.2648 7.63489 19.206 7.95929C19.1472 8.28368 19.1869 8.61826 19.32 8.91988V8.99988C19.4468 9.29565 19.6572 9.5479 19.9255 9.72557C20.1938 9.90325 20.5082 9.99859 20.83 9.99988H21C21.5304 9.99988 22.0391 10.2106 22.4142 10.5857C22.7893 10.9607 23 11.4694 23 11.9999C23 12.5303 22.7893 13.039 22.4142 13.4141C22.0391 13.7892 21.5304 13.9999 21 13.9999H20.91C20.5882 14.0012 20.2738 14.0965 20.0055 14.2742C19.7372 14.4519 19.5268 14.7041 19.4 14.9999Z" stroke="#6C6C6C" stroke-linecap="round" stroke-linejoin="round"/>
</g>
<defs>
<clipPath id="clip0_39_652">
<rect width="24" height="24" fill="white"/>
</clipPath>
</defs>
</svg>
