<svg width="25" height="25" viewBox="0 0 25 25" fill="none" xmlns="http://www.w3.org/2000/svg">
<path d="M22.4258 20.027C20.998 17.5585 18.7977 15.7885 16.2299 14.9495C17.5 14.1933 18.4868 13.0412 19.0388 11.6699C19.5908 10.2986 19.6773 8.78409 19.2852 7.35886C18.8931 5.93363 18.044 4.67652 16.8683 3.78058C15.6926 2.88464 14.2552 2.39941 12.777 2.39941C11.2989 2.39941 9.86155 2.88464 8.68582 3.78058C7.5101 4.67652 6.66098 5.93363 6.26887 7.35886C5.87675 8.78409 5.96332 10.2986 6.51529 11.6699C7.06725 13.0412 8.05408 14.1933 9.32424 14.9495C6.75642 15.7876 4.55611 17.5576 3.1283 20.027C3.07594 20.1123 3.04121 20.2073 3.02616 20.3064C3.01111 20.4054 3.01604 20.5064 3.04066 20.6035C3.06529 20.7006 3.10911 20.7917 3.16954 20.8716C3.22997 20.9515 3.30578 21.0184 3.39251 21.0685C3.47923 21.1186 3.57511 21.1508 3.67449 21.1633C3.77387 21.1757 3.87473 21.1681 3.97113 21.1409C4.06753 21.1138 4.15751 21.0676 4.23576 21.005C4.31401 20.9425 4.37894 20.865 4.42674 20.777C6.19299 17.7245 9.31486 15.902 12.777 15.902C16.2392 15.902 19.3611 17.7245 21.1274 20.777C21.1752 20.865 21.2401 20.9425 21.3183 21.005C21.3966 21.0676 21.4866 21.1138 21.583 21.1409C21.6794 21.1681 21.7802 21.1757 21.8796 21.1633C21.979 21.1508 22.0749 21.1186 22.1616 21.0685C22.2483 21.0184 22.3241 20.9515 22.3846 20.8716C22.445 20.7917 22.4888 20.7006 22.5134 20.6035C22.5381 20.5064 22.543 20.4054 22.5279 20.3064C22.5129 20.2073 22.4782 20.1123 22.4258 20.027ZM7.52705 9.15196C7.52705 8.11361 7.83496 7.09858 8.41183 6.23522C8.98871 5.37186 9.80865 4.69896 10.768 4.3016C11.7273 3.90424 12.7829 3.80027 13.8013 4.00284C14.8197 4.20541 15.7551 4.70543 16.4894 5.43965C17.2236 6.17388 17.7236 7.10934 17.9262 8.12774C18.1287 9.14614 18.0248 10.2017 17.6274 11.1611C17.2301 12.1204 16.5571 12.9403 15.6938 13.5172C14.8304 14.0941 13.8154 14.402 12.777 14.402C11.3851 14.4005 10.0506 13.8469 9.06638 12.8626C8.08214 11.8784 7.52854 10.5439 7.52705 9.15196Z" fill="black"/>
</svg>
